<mxfile host="app.diagrams.net" modified="2024-02-20T13:41:36.606Z" agent="Mozilla/5.0 (Macintosh; Intel Mac OS X 10_15_7) AppleWebKit/537.36 (KHTML, like Gecko) Chrome/122.0.0.0 Safari/537.36" etag="AEVfjMWWBQn9VTWNOKWz" version="23.1.5" type="github">
  <diagram name="第 1 页" id="IeVL4sp4n4u1WI5wHGy0">
    <mxGraphModel dx="954" dy="665" grid="1" gridSize="10" guides="1" tooltips="1" connect="1" arrows="1" fold="1" page="0" pageScale="1" pageWidth="827" pageHeight="1169" math="0" shadow="0">
      <root>
        <mxCell id="0" />
        <mxCell id="1" parent="0" />
      </root>
    </mxGraphModel>
  </diagram>
</mxfile>
